HIERARCHY
ROOT Hips
{
	OFFSET 0.000000 0.000000 0.000000 
	CHANNELS 6 Xposition Yposition Zposition Zrotation Yrotation Xrotation
	JOINT LeftUpLeg
	{
		OFFSET 1.363060 -1.794630 0.839290 
		CHANNELS 3 Zrotation Yrotation Xrotation
		JOINT LeftLeg
		{
			OFFSET 2.448110 -6.726130 0.000000 
			CHANNELS 3 Zrotation Yrotation Xrotation
			JOINT LeftFoot
			{
				OFFSET 2.562200 -7.039590 0.000000 
				CHANNELS 3 Zrotation Yrotation Xrotation
				JOINT LeftToeBase
				{
					OFFSET 0.157640 -0.433110 2.322550 
					CHANNELS 3 Zrotation Yrotation Xrotation
					End Site
					{
						OFFSET 0.000000 0.000000 0.000000 
					}
				}
			}
		}
	}
	JOINT RightUpLeg
	{
		OFFSET -1.305520 -1.794630 0.839290 
		CHANNELS 3 Zrotation Yrotation Xrotation
		JOINT RightLeg
		{
			OFFSET -2.542530 -6.985550 0.000000 
			CHANNELS 3 Zrotation Yrotation Xrotation
			JOINT RightFoot
			{
				OFFSET -2.568260 -7.056230 0.000000 
				CHANNELS 3 Zrotation Yrotation Xrotation
				JOINT RightToeBase
				{
					OFFSET -0.164730 -0.452590 2.363150 
					CHANNELS 3 Zrotation Yrotation Xrotation
					End Site
					{
						OFFSET 0.000000 0.000000 0.000000 
					}
				}
			}
		}
	}
	JOINT Spine
	{
		OFFSET 0.028270 2.035590 -0.193380 
		CHANNELS 3 Zrotation Yrotation Xrotation
		JOINT Spine1
		{
			OFFSET 0.056720 2.048850 -0.042750 
			CHANNELS 3 Zrotation Yrotation Xrotation
			JOINT Neck1
			{
				OFFSET -0.054170 1.746240 0.172020 
				CHANNELS 3 Zrotation Yrotation Xrotation
				JOINT Head
				{
					OFFSET 0.104070 1.761360 -0.123970 
					CHANNELS 3 Zrotation Yrotation Xrotation
					End Site
					{
						OFFSET 0.000000 0.000000 0.000000 
					}
				}
			}
			JOINT LeftArm
			{
				OFFSET 3.362410 1.200890 -0.311210 
				CHANNELS 3 Zrotation Yrotation Xrotation
				JOINT LeftForeArm
				{
					OFFSET 4.983000 -0.000000 -0.000000 
					CHANNELS 3 Zrotation Yrotation Xrotation
					JOINT LeftHand
					{
						OFFSET 3.483560 -0.000000 -0.000000 
						CHANNELS 3 Zrotation Yrotation Xrotation
						JOINT LeftHandIndex1
						{
							OFFSET 0.715260 -0.000000 -0.000000 
							CHANNELS 3 Zrotation Yrotation Xrotation
							End Site
							{
								OFFSET 0.000000 0.000000 0.000000 
							}
						}
					}
				}
			}
			JOINT RightArm
			{
				OFFSET -3.136600 1.374050 -0.404650 
				CHANNELS 3 Zrotation Yrotation Xrotation
				JOINT RightForeArm
				{
					OFFSET -5.241900 -0.000000 -0.000000 
					CHANNELS 3 Zrotation Yrotation Xrotation
					JOINT RightHand
					{
						OFFSET -3.444170 -0.000000 -0.000000 
						CHANNELS 3 Zrotation Yrotation Xrotation
						JOINT RightHandIndex1
						{
							OFFSET -0.622530 -0.000000 -0.000000 
							CHANNELS 3 Zrotation Yrotation Xrotation
							End Site
							{
								OFFSET 0.000000 0.000000 0.000000 
							}
						}
					}
				}
			}
		}
	}
}
MOTION
Frames: 6
Frame Time: 0.041667
-0.050956 17.985744 -0.688408 1.458098 -13.146787 6.496253 -19.160208 -4.683289 -3.715488 -1.121740 2.606584 10.829474 -1.393012 7.481828 -3.456538 0.426000 -4.188700 -11.608100 12.344824 13.791158 -10.584362 -0.827643 -7.374629 22.876149 -0.638338 2.800116 -5.087652 -0.108600 -2.125000 5.851300 1.441952 -1.406750 -0.496487 3.472847 -0.271239 -0.558039 7.643490 -11.165867 11.371847 3.685500 -5.589800 9.873600 -78.530101 9.322247 -4.934470 8.928358 -18.362867 -1.551257 -0.333538 -1.250633 2.670643 -7.125000 0.000000 0.000000 74.318420 -9.574300 10.519255 -20.892436 28.858547 -6.329155 0.381285 -0.407067 16.643198 7.125000 0.000000 0.000000 
-0.050057 17.987043 -0.696402 1.476210 -13.092461 6.491081 -19.160891 -4.756844 -3.688041 -1.129369 2.583060 10.762266 -1.400589 7.514836 -3.428264 0.415600 -4.138100 -11.465600 12.334337 13.822597 -10.601554 -0.827429 -7.375966 22.878117 -0.626690 2.724262 -5.089295 -0.111800 -2.155800 5.936500 1.437908 -1.420042 -0.518577 3.479044 -0.275564 -0.638979 7.638171 -11.154148 11.467068 3.688600 -5.586900 9.905000 -78.667577 9.285674 -5.069092 8.983700 -18.444659 -1.569069 -0.331665 -1.251889 2.682136 -7.125000 0.000000 0.000000 74.344601 -9.582661 10.982925 -21.084853 29.064268 -6.428887 0.404705 -0.399027 16.140413 7.125000 0.000000 0.000000 
-0.050956 17.987543 -0.703196 1.520691 -13.065288 6.471671 -19.190919 -4.787474 -3.672351 -1.132087 2.573224 10.736446 -1.399677 7.509807 -3.415484 0.396900 -4.044800 -11.202700 12.299941 13.880521 -10.605973 -0.829056 -7.382620 22.894049 -0.612099 2.617088 -5.127703 -0.101400 -2.053600 5.653800 1.403598 -1.417379 -0.534442 3.466923 -0.271982 -0.703716 7.607256 -11.155480 11.566218 3.673300 -5.588700 9.932200 -78.745681 9.280223 -5.089152 9.062304 -18.570418 -1.599952 -0.325238 -1.250167 2.484654 -7.125000 0.000000 0.000000 74.409188 -9.542193 11.077318 -21.204540 29.197966 -6.495365 0.377381 -0.404011 16.433288 7.125000 0.000000 0.000000 
-0.051855 17.988142 -0.711489 1.537406 -12.997684 6.493656 -19.178723 -4.732325 -3.744754 -1.135723 2.556938 10.689694 -1.379029 7.399947 -3.291602 0.382000 -3.969200 -10.989900 12.288032 13.897862 -10.643404 -0.831743 -7.389450 22.912948 -0.606080 2.574145 -5.139094 -0.112800 -2.165300 5.962800 1.394282 -1.446718 -0.544607 3.472788 -0.286334 -0.732991 7.660950 -11.136356 11.635946 3.701900 -5.578600 9.959200 -78.861476 9.248225 -4.994776 9.186588 -18.769778 -1.648664 -0.309888 -1.251731 2.135144 -7.125000 0.000000 0.000000 74.453590 -9.400151 10.998344 -21.299625 29.303705 -6.549862 0.341451 -0.410791 17.071727 7.125000 0.000000 0.000000 
-0.051855 17.989341 -0.718483 1.536835 -12.900914 6.518793 -19.155752 -4.718283 -3.817688 -1.136133 2.556220 10.683840 -1.357480 7.288636 -3.196881 0.372100 -3.917800 -10.845500 12.289669 13.911924 -10.662377 -0.832822 -7.392484 22.921955 -0.598460 2.509337 -5.189637 -0.121700 -2.248500 6.193000 1.368116 -1.472951 -0.537097 3.428311 -0.300739 -0.726214 7.736073 -11.137717 11.585646 3.729200 -5.573600 9.940700 -78.932760 9.126968 -4.921777 9.279787 -18.913526 -1.682195 -0.295321 -1.258689 2.039416 -7.125000 0.000000 0.000000 74.535814 -9.306365 11.109780 -21.462959 29.478046 -6.638346 0.332182 -0.410082 17.234532 7.125000 0.000000 0.000000 
-0.050756 17.990540 -0.723478 1.612090 -12.857787 6.516464 -19.231036 -4.610124 -3.912775 -1.130650 2.568299 10.723522 -1.316991 7.095140 -3.164279 0.384500 -3.981800 -11.025600 12.202184 13.907842 -10.690310 -0.831058 -7.393065 22.915313 -0.589807 2.438037 -5.221637 -0.107600 -2.115500 5.825100 1.315762 -1.460786 -0.503425 3.382619 -0.296673 -0.681413 7.724157 -11.181505 11.522316 3.711300 -5.590800 9.925200 -78.999974 8.950582 -4.905887 9.327731 -18.979312 -1.695386 -0.289580 -1.265477 2.048926 -7.125000 0.000000 0.000000 74.629113 -9.251527 11.423064 -21.697935 29.723380 -6.762062 0.350162 -0.395219 16.845571 7.125000 0.000000 0.000000 
